<mxfile host="app.diagrams.net" modified="2021-09-30T17:55:30.966Z" agent="5.0 (Windows NT 10.0; Win64; x64) AppleWebKit/537.36 (KHTML, like Gecko) Chrome/94.0.4606.61 Safari/537.36" etag="1Km2aV7te1jCatDrtUlN" version="14.7.6" type="github">
  <diagram id="iegxTT7tLI4bLzh71EwX" name="Page-1">
    <mxGraphModel dx="1038" dy="489" grid="1" gridSize="10" guides="1" tooltips="1" connect="1" arrows="1" fold="1" page="1" pageScale="1" pageWidth="827" pageHeight="1169" math="0" shadow="0">
      <root>
        <mxCell id="0" />
        <mxCell id="1" parent="0" />
        <mxCell id="3otVuQgLfyWSiV5zctxg-2" value="" style="verticalLabelPosition=bottom;aspect=fixed;html=1;verticalAlign=top;strokeColor=none;align=center;outlineConnect=0;shape=mxgraph.citrix.reporting;" vertex="1" parent="1">
          <mxGeometry x="340" y="86.84" width="127.6" height="143.16" as="geometry" />
        </mxCell>
        <mxCell id="3otVuQgLfyWSiV5zctxg-5" value="" style="aspect=fixed;html=1;points=[];align=center;image;fontSize=12;image=img/lib/mscae/App_Service.svg;" vertex="1" parent="1">
          <mxGeometry x="80" y="83.68" width="130" height="130" as="geometry" />
        </mxCell>
        <mxCell id="3otVuQgLfyWSiV5zctxg-6" value="Nuvem IoT (ThingSpeak)" style="text;html=1;strokeColor=none;fillColor=none;align=center;verticalAlign=middle;whiteSpace=wrap;rounded=0;" vertex="1" parent="1">
          <mxGeometry x="110" y="50" width="70" height="20" as="geometry" />
        </mxCell>
        <mxCell id="3otVuQgLfyWSiV5zctxg-8" value="Dashboard de apresentação dos dados (React)" style="text;html=1;strokeColor=none;fillColor=none;align=center;verticalAlign=middle;whiteSpace=wrap;rounded=0;" vertex="1" parent="1">
          <mxGeometry x="380" y="30" width="110" height="80" as="geometry" />
        </mxCell>
        <mxCell id="3otVuQgLfyWSiV5zctxg-9" value="" style="aspect=fixed;html=1;points=[];align=center;image;fontSize=12;image=img/lib/mscae/Azure_Database_Migration_Services.svg;" vertex="1" parent="1">
          <mxGeometry x="310" y="230" width="90" height="90" as="geometry" />
        </mxCell>
        <mxCell id="3otVuQgLfyWSiV5zctxg-10" value="Backend armazenamento de dados em MySQL e alimentação frontend." style="text;html=1;strokeColor=none;fillColor=none;align=center;verticalAlign=middle;whiteSpace=wrap;rounded=0;" vertex="1" parent="1">
          <mxGeometry x="300" y="320" width="110" height="80" as="geometry" />
        </mxCell>
        <mxCell id="3otVuQgLfyWSiV5zctxg-14" value="" style="html=1;shadow=0;dashed=0;align=center;verticalAlign=middle;shape=mxgraph.arrows2.arrow;dy=0.67;dx=20;notch=0;rotation=30;strokeColor=#1930FF;" vertex="1" parent="1">
          <mxGeometry x="175" y="248.66" width="100" height="40" as="geometry" />
        </mxCell>
      </root>
    </mxGraphModel>
  </diagram>
</mxfile>
